:FULLY-SPECIFIED
:FORCE-ALL-JOINTS-BE-3DOF
:DEGREES
48
root 0.546782 17.3136 -10.9649 3.8776 -8.61821 -4.72525
lfemur -26.1137 14.083 -9.80116
ltibia 109.412 0 0
lfoot 14.0099 -4.47201 0
ltoes -9.62565 0 0
rfemur -13.2574 2.25587 31.3652
rtibia 45.0911 0 0
rfoot -13.5547 -6.48194 0
rtoes -6.06623 0 0
lowerback 18.3667 -0.759681 3.54397
upperback 2.38852 -0.125621 1.92065
thorax -7.71502 -0.15296 0.084784
lowerneck -1.7263 2.67921 0.713996
upperneck -16.1525 3.13066 -3.505
head -4.45884 1.69268 -1.32225
lclavicle -1.26736e-14 1.47369e-14 0
lhumerus -47.5866 -10.7912 96.0043
lradius 103.717 0 0
lwrist 34.0003 0 0
lhand -39.3492 13.7238 0
lfingers 7.12502 0 0
lthumb -12.3403 43.3373 0
rclavicle -1.26736e-14 1.47369e-14 0
rhumerus -31.1663 12.2692 -87.917
rradius 100.145 0 0
rwrist -2.48828 0 0
rhand -44.3885 37.9851 0
rfingers 7.12502 0 0
rthumb -17.1953 8.72305 0
49
root 0.547456 17.3174 -10.4256 3.78638 -8.32322 -4.56503
lfemur -26.0186 13.7074 -10.1565
ltibia 107.996 0 0
lfoot 13.3836 -4.41288 0
ltoes -9.79581 0 0
rfemur -13.0851 1.90423 31.0387
rtibia 46.3717 0 0
rfoot -12.7206 -6.49206 0
rtoes -5.351 0 0
lowerback 18.3528 -0.755226 3.36264
upperback 2.41237 -0.161308 1.82234
thorax -7.67971 -0.166998 0.0899904
lowerneck -1.83726 2.59558 0.652106
upperneck -16.0037 3.03507 -3.3292
head -4.39742 1.64326 -1.25524
lclavicle -1.21913e-14 1.55995e-14 0
lhumerus -47.2092 -10.8214 95.8061
lradius 103.733 0 0
lwrist 33.9341 0 0
lhand -39.2804 13.6064 0
lfingers 7.12502 0 0
lthumb -12.2739 43.2233 0
rclavicle -1.21913e-14 1.55995e-14 0
rhumerus -31.4499 12.1319 -87.8472
rradius 99.7305 0 0
rwrist -2.39761 0 0
rhand -44.3662 37.9725 0
rfingers 7.12502 0 0
rthumb -17.174 8.70826 0
50
root 0.54813 17.3212 -9.88629 3.69076 -7.99688 -4.38711
lfemur -25.8981 13.2896 -10.5551
ltibia 106.412 0 0
lfoot 12.6781 -4.34453 0
ltoes -9.97888 0 0
rfemur -12.928 1.52258 30.6747
rtibia 47.8085 0 0
rfoot -11.8029 -6.50141 0
rtoes -4.57488 0 0
lowerback 18.3391 -0.750932 3.15989
upperback 2.43703 -0.202325 1.71303
thorax -7.64341 -0.183111 0.0968338
lowerneck -1.95626 2.50332 0.583969
upperneck -15.8426 2.92994 -3.13324
head -4.33152 1.58873 -1.18058
lclavicle -1.16724e-14 1.6491e-14 0
lhumerus -46.764 -10.8641 95.58
lradius 103.762 0 0
lwrist 33.8567 0 0
lhand -39.2048 13.4758 0
lfingers 7.12502 0 0
lthumb -12.201 43.0965 0
rclavicle -1.16724e-14 1.6491e-14 0
rhumerus -31.7782 11.9813 -87.7736
rradius 99.2679 0 0
rwrist -2.2991 0 0
rhand -44.3478 37.9617 0
rfingers 7.12502 0 0
rthumb -17.1563 8.69566 0
51
root 0.548804 17.325 -9.34696 3.59108 -7.64148 -4.19271
lfemur -25.7535 12.8328 -10.9938
ltibia 104.671 0 0
lfoot 11.8995 -4.26754 0
ltoes -10.1738 0 0
rfemur -12.7857 1.11336 30.276
rtibia 49.39 0 0
rfoot -10.808 -6.51002 0
rtoes -3.74235 0 0
lowerback 18.3257 -0.746817 2.93727
upperback 2.46238 -0.248327 1.59355
thorax -7.60622 -0.201167 0.105224
lowerneck -2.08273 2.40309 0.510046
upperneck -15.67 2.81603 -2.91863
head -4.26145 1.52947 -1.09883
lclavicle -1.11204e-14 1.74082e-14 0
lhumerus -46.2557 -10.9186 95.328
lradius 103.802 0 0
lwrist 33.7689 0 0
lhand -39.1231 13.3329 0
lfingers 7.12502 0 0
lthumb -12.1222 42.9577 0
rclavicle -1.11204e-14 1.74082e-14 0
rhumerus -32.1481 11.8184 -87.6967
rradius 98.761 0 0
rwrist -2.19337 0 0
rhand -44.3331 37.9527 0
rfingers 7.12502 0 0
rthumb -17.1421 8.68516 0
52
root 0.549478 17.3288 -8.80763 3.48765 -7.25936 -3.98307
lfemur -25.5857 12.34 -11.4695
ltibia 102.786 0 0
lfoot 11.0536 -4.18247 0
ltoes -10.3794 0 0
rfemur -12.6575 0.679 29.8452
rtibia 51.1044 0 0
rfoot -9.742 -6.51792 0
rtoes -2.85793 0 0
lowerback 18.3125 -0.742896 2.69631
upperback 2.48833 -0.298968 1.46469
thorax -7.56828 -0.221031 0.11507
lowerneck -2.21612 2.29554 0.4308
upperneck -15.4866 2.69406 -2.68687
head -4.18751 1.46588 -1.01055
lclavicle -1.05386e-14 1.83482e-14 0
lhumerus -45.6888 -10.9843 95.052
lradius 103.854 0 0
lwrist 33.6712 0 0
lhand -39.0356 13.1786 0
lfingers 7.12502 0 0
lthumb -12.0377 42.8078 0
rclavicle -1.05386e-14 1.83482e-14 0
rhumerus -32.5567 11.6444 -87.6166
rradius 98.2129 0 0
rwrist -2.08108 0 0
rhand -44.3217 37.9453 0
rfingers 7.12502 0 0
rthumb -17.1312 8.67666 0
53
root 0.550153 17.3326 -8.2683 3.38081 -6.85281 -3.75942
lfemur -25.3958 11.8143 -11.9792
ltibia 100.769 0 0
lfoot 10.1467 -4.08988 0
ltoes -10.5947 0 0
rfemur -12.5429 0.221918 29.385
rtibia 52.9402 0 0
rfoot -8.61134 -6.52514 0
rtoes -1.92612 0 0
lowerback 18.2995 -0.739184 2.43857
upperback 2.51477 -0.353904 1.32727
thorax -7.52971 -0.242572 0.126282
lowerneck -2.35586 2.18134 0.346691
upperneck -15.2934 2.56478 -2.43949
head -4.11 1.39835 -0.916319
lclavicle -9.93038e-15 1.93078e-14 0
lhumerus -45.0682 -11.0606 94.7541
lradius 103.916 0 0
lwrist 33.5643 0 0
lhand -38.9428 13.0137 0
lfingers 7.12502 0 0
lthumb -11.9482 42.6476 0
rclavicle -9.93038e-15 1.93078e-14 0
rhumerus -33.001 11.4601 -87.5337
rradius 97.6273 0 0
rwrist -1.96285 0 0
rhand -44.3136 37.9395 0
rfingers 7.12502 0 0
rthumb -17.1234 8.67007 0
54
root 0.550827 17.3364 -7.72898 3.27087 -6.42415 -3.52299
lfemur -25.185 11.2589 -12.5198
ltibia 98.6324 0 0
lfoot 9.18463 -3.99035 0
ltoes -10.8185 0 0
rfemur -12.4416 -0.255457 28.8982
rtibia 54.8858 0 0
rfoot -7.42229 -6.53171 0
rtoes -0.951419 0 0
lowerback 18.2867 -0.735697 2.16558
upperback 2.5416 -0.412788 1.1821
thorax -7.49063 -0.265657 0.13877
lowerneck -2.5014 2.06114 0.258183
upperneck -15.091 2.42893 -2.17798
head -4.02923 1.32727 -0.816702
lclavicle -9.29922e-15 2.02841e-14 0
lhumerus -44.3984 -11.147 94.4362
lradius 103.987 0 0
lwrist 33.4489 0 0
lhand -38.8452 12.8392 0
lfingers 7.12502 0 0
lthumb -11.8541 42.478 0
rclavicle -9.29922e-15 2.02841e-14 0
rhumerus -33.4781 11.2667 -87.4483
rradius 97.0073 0 0
rwrist -1.83931 0 0
rhand -44.3086 37.9352 0
rfingers 7.12502 0 0
rthumb -17.1186 8.6653 0
55
root 0.551501 17.3402 -7.18965 3.15817 -5.97569 -3.275
lfemur -24.9544 10.6768 -13.0883
ltibia 96.3877 0 0
lfoot 8.17355 -3.88444 0
ltoes -11.0498 0 0
rfemur -12.3528 -0.750697 28.3875
rtibia 56.9294 0 0
rfoot -6.18115 -6.53766 0
rtoes 0.0616659 0 0
lowerback 18.2741 -0.732451 1.8789
upperback 2.56873 -0.475276 1.02997
thorax -7.45116 -0.290153 0.152443
lowerneck -2.65217 1.9356 0.165737
upperneck -14.8804 2.28723 -1.90385
head -3.9455 1.25304 -0.712266
lclavicle -8.64847e-15 2.1274e-14 0
lhumerus -43.684 -11.2427 94.1002
lradius 104.068 0 0
lwrist 33.3257 0 0
lhand -38.7433 12.6559 0
lfingers 7.12502 0 0
lthumb -11.7558 42.2998 0
rclavicle -8.64847e-15 2.1274e-14 0
rhumerus -33.9848 11.0651 -87.3605
rradius 96.3564 0 0
rwrist -1.71111 0 0
rhand -44.3065 37.9324 0
rfingers 7.12502 0 0
rthumb -17.1165 8.66224 0
